<?xml version="1.0" encoding="utf-8"?>
<!-- Generator: Adobe Illustrator 21.0.2, SVG Export Plug-In . SVG Version: 6.00 Build 0)  -->
<svg version="1.1" id="Layer_1" xmlns="http://www.w3.org/2000/svg" xmlns:xlink="http://www.w3.org/1999/xlink" x="0px" y="0px"
	 viewBox="0 0 167.7 42.9" style="enable-background:new 0 0 167.7 42.9;" xml:space="preserve">
<style type="text/css">
	.st0{fill:#FFFFFF;}
</style>
<title>Logo/Reverse</title>
<desc>Created with Sketch.</desc>
<g id="Symbols">
	<g id="App-Header-Logged-Out_x2F_Desktop" transform="translate(-430.000000, -48.000000)">
		<g id="Logo_x2F_Reverse" transform="translate(430.000000, 48.000000)">
			<g id="TU_BackgroundNow_logo-reverse">
				<g id="Layer_1_1_">
					<path id="Shape" class="st0" d="M25.5,29.4c-0.5-0.3-1-0.6-1.5-0.8c-0.6-0.2-1.1-0.2-1.7-0.2c-0.4,0-0.9,0-1.3,0.1
						c-0.4,0.1-0.8,0.2-1.2,0.4c-0.4,0.2-0.7,0.4-1,0.7c-0.3,0.3-0.5,0.6-0.6,1c0-0.5-0.2-0.9-0.5-1.3c-0.3-0.3-0.6-0.6-1.1-0.7
						c-0.5-0.2-0.9-0.2-1.4-0.2c-0.5,0-1.1,0.1-1.6,0.2v2.1c0.3,0,0.6,0,0.9,0.1c0.2,0.1,0.4,0.2,0.5,0.3c0.1,0.2,0.2,0.4,0.2,0.6
						v0.8v10h3.1v-7.9c0-0.5,0.1-1,0.4-1.5c0.2-0.4,0.4-0.7,0.8-1c0.3-0.3,0.7-0.5,1.2-0.6c0.5-0.1,0.9-0.2,1.4-0.2
						c0.8,0,1.6,0.2,2.3,0.5l0,0L25.5,29.4z"/>
					<path id="Shape_1_" class="st0" d="M39.5,40.3c-0.2-0.1-0.4-0.2-0.5-0.4c-0.1-0.2-0.2-0.4-0.2-0.6v-0.9v-8.7
						C38,29.3,37,29,36,28.8c-1-0.2-2-0.3-3-0.3c-1.1,0-2.1,0.1-3.1,0.5c-1.9,0.6-3.4,2-4.2,3.8c-0.4,1-0.6,2-0.6,3.1
						c0,0.9,0.1,1.8,0.4,2.7c0.2,0.8,0.6,1.6,1.2,2.2c0.5,0.6,1.2,1.1,2,1.5c0.9,0.4,1.8,0.6,2.8,0.5c1,0,2-0.3,2.9-0.8
						c0.9-0.5,1.6-1.3,1.9-2.2c0,0.6,0.1,1.2,0.4,1.7c0.2,0.4,0.5,0.7,0.9,0.9c0.4,0.2,0.9,0.3,1.3,0.3c0.5,0,1,0,1.5-0.1v-2.2
						C40.1,40.4,39.8,40.4,39.5,40.3L39.5,40.3z M35.8,35.6c0,1.1-0.3,2.2-1,3.2c-0.6,0.8-1.6,1.3-2.7,1.3c-1.1,0.1-2.2-0.3-2.9-1.1
						c-0.7-0.9-1-1.9-1-3c0-0.7,0.1-1.4,0.4-2c0.2-0.6,0.5-1.1,0.9-1.5c0.4-0.4,0.9-0.8,1.4-1c0.6-0.2,1.2-0.4,1.8-0.3
						c0.5,0,1,0,1.4,0.1c0.5,0.1,1,0.2,1.5,0.4L35.8,35.6z"/>
					<path id="Shape_2_" class="st0" d="M54.7,30.2c-0.5-0.5-1.1-1-1.7-1.2c-0.8-0.3-1.6-0.5-2.5-0.4c-0.5,0-1,0-1.4,0.1
						c-0.5,0.1-0.9,0.2-1.4,0.4c-0.4,0.2-0.8,0.4-1.2,0.7c-0.3,0.3-0.6,0.7-0.8,1.1c0-0.5-0.1-1.1-0.4-1.5c-0.3-0.3-0.6-0.6-1-0.7
						c-0.5-0.1-0.9-0.2-1.4-0.1c-0.5,0-1.1,0.1-1.6,0.2v2.1c0.3,0,0.6,0,0.8,0c0.2,0,0.3,0.1,0.5,0.3c0.1,0.2,0.2,0.4,0.2,0.6v1v9.8
						H46v-7.8c0-0.5,0.1-1,0.3-1.5c0.2-0.4,0.4-0.8,0.8-1.2c0.3-0.3,0.7-0.6,1.1-0.8c0.4-0.2,0.9-0.3,1.4-0.3c0.9,0,1.7,0.3,2.4,0.9
						c0.7,0.7,1,1.6,0.9,2.5v8.1H56v-8.1c0-0.8-0.1-1.6-0.3-2.4C55.5,31.3,55.2,30.7,54.7,30.2L54.7,30.2z"/>
					<path id="Shape_3_" class="st0" d="M68.9,35.3c-0.6-0.3-1.2-0.5-1.9-0.6c-0.7-0.1-1.4-0.2-2.2-0.3c-0.9-0.1-1.7-0.2-2.5-0.5
						c-0.5-0.2-0.9-0.6-0.9-1.2c0-0.3,0-0.6,0.2-0.8c0.2-0.2,0.4-0.5,0.7-0.6c0.3-0.2,0.6-0.3,0.9-0.4c0.4-0.1,0.7-0.1,1.1-0.1
						c0.4,0,0.8,0,1.1,0.1c0.4,0,0.7,0.2,1,0.3c0.3,0.1,0.6,0.3,0.8,0.6c0.2,0.2,0.3,0.5,0.3,0.9h2.8c0-0.6-0.1-1.3-0.5-1.8
						c-0.3-0.5-0.8-1-1.3-1.3c-0.6-0.4-1.2-0.6-1.9-0.8c-0.8-0.2-1.6-0.3-2.4-0.3c-0.7,0-1.5,0.1-2.2,0.3c-0.7,0.1-1.3,0.4-1.9,0.8
						c-0.5,0.3-1,0.8-1.3,1.3c-0.4,0.6-0.5,1.2-0.5,1.9c0,0.7,0.2,1.3,0.6,1.9c0.4,0.5,0.9,0.8,1.5,1.1c0.6,0.3,1.3,0.5,2,0.6
						c0.7,0.1,1.5,0.2,2.2,0.3c0.8,0.1,1.5,0.3,2.3,0.5c0.6,0.2,0.9,0.7,0.9,1.3c0,0.4-0.1,0.7-0.3,1c-0.2,0.3-0.5,0.5-0.8,0.6
						c-0.3,0.2-0.7,0.3-1.1,0.3c-0.4,0.1-0.8,0.1-1.2,0.1c-0.4,0-0.8,0-1.1-0.1c-0.4-0.1-0.7-0.2-1-0.4c-0.3-0.2-0.5-0.4-0.7-0.6
						c-0.2-0.3-0.3-0.6-0.4-0.9h-3.1c0,0.8,0.3,1.5,0.7,2.1c0.4,0.6,0.9,1,1.5,1.4c0.6,0.4,1.3,0.6,2,0.7c0.8,0.1,1.5,0.2,2.3,0.2
						c0.8,0,1.5-0.1,2.3-0.3c0.7-0.1,1.4-0.4,2-0.8c0.6-0.3,1-0.8,1.4-1.4c0.4-0.6,0.6-1.3,0.6-2c0-0.7-0.1-1.4-0.5-2
						C69.9,36,69.5,35.6,68.9,35.3z"/>
					<path id="Shape_4_" class="st0" d="M104.6,30.2c-0.5-0.5-1.1-1-1.7-1.2c-0.8-0.3-1.6-0.5-2.5-0.5c-0.5,0-0.9,0-1.4,0.1
						c-0.5,0.1-0.9,0.2-1.4,0.4c-0.4,0.2-0.8,0.4-1.2,0.7c-0.3,0.3-0.6,0.7-0.8,1.1c0-0.5-0.1-1.1-0.4-1.5c-0.3-0.3-0.6-0.6-1-0.7
						c-0.5-0.1-0.9-0.2-1.4-0.1c-0.5,0-1.1,0.1-1.6,0.2v2.1c0.3,0,0.6,0,0.8,0c0.2,0,0.3,0.1,0.5,0.3c0.1,0.2,0.2,0.4,0.2,0.6v1v9.8
						h3.2v-7.8c0-0.5,0.1-1,0.3-1.5c0.2-0.4,0.4-0.8,0.8-1.2c0.3-0.3,0.7-0.6,1.1-0.8c0.4-0.2,0.9-0.3,1.4-0.3
						c0.9,0,1.7,0.3,2.4,0.9c0.7,0.7,1,1.6,0.9,2.5v8.1h3.2v-8.1c0-0.8-0.1-1.6-0.3-2.4C105.4,31.3,105,30.7,104.6,30.2z"/>
					<path id="Shape_5_" class="st0" d="M110.2,22.6c-0.5,0-1,0.2-1.3,0.5c-0.4,0.3-0.6,0.9-0.6,1.4c0,0.5,0.2,1.1,0.6,1.4
						c0.4,0.3,0.9,0.5,1.3,0.4c0.5,0,0.9-0.2,1.3-0.5c0.4-0.4,0.6-0.9,0.6-1.4c0-0.5-0.2-1-0.6-1.4
						C111.1,22.8,110.7,22.6,110.2,22.6L110.2,22.6z"/>
					<rect id="Rectangle-path" x="108.6" y="28.7" class="st0" width="3.2" height="13.8"/>
					<path id="Shape_6_" class="st0" d="M126.6,30.2c-0.7-0.6-1.5-1-2.4-1.3c-0.9-0.3-1.9-0.4-2.8-0.4c-0.9,0-1.8,0.1-2.7,0.4
						c-0.9,0.3-1.7,0.7-2.4,1.3c-0.7,0.6-1.3,1.4-1.6,2.2c-0.4,1-0.6,2-0.6,3.1c0,1.1,0.2,2.2,0.6,3.2c0.8,1.7,2.2,3,4.1,3.6
						c1.8,0.6,3.7,0.6,5.5,0c0.9-0.3,1.7-0.8,2.4-1.3c0.7-0.6,1.3-1.4,1.7-2.3c0.8-2,0.8-4.3,0-6.3
						C127.9,31.5,127.3,30.8,126.6,30.2L126.6,30.2z M125.4,37.5c-0.2,0.5-0.5,1-0.9,1.4c-0.4,0.4-0.8,0.7-1.3,0.8
						c-0.5,0.2-1,0.3-1.6,0.3c-0.5,0-1.1-0.1-1.6-0.3c-0.5-0.2-1-0.5-1.4-0.8c-0.4-0.4-0.8-0.9-1-1.4c-0.3-0.6-0.4-1.3-0.4-2
						c0-0.7,0.1-1.3,0.4-1.9c0.2-0.5,0.5-1,0.9-1.3c0.4-0.3,0.8-0.6,1.3-0.8c0.5-0.2,1-0.3,1.6-0.3c0.5,0,1.1,0.1,1.6,0.2
						c0.5,0.2,1,0.4,1.4,0.8c0.4,0.4,0.8,0.9,1,1.4c0.3,0.6,0.4,1.3,0.4,1.9C125.7,36.2,125.6,36.9,125.4,37.5L125.4,37.5z"/>
					<polygon id="Shape_7_" class="st0" points="0,25.4 0,22.5 15.2,22.5 15.2,25.4 9.3,25.4 9.3,42.5 5.9,42.5 5.9,25.4 					"/>
					<path id="Shape_8_" class="st0" d="M73.1,35.8V22.5h3.4v13.2c0,2.6,2,4.1,4.6,4.1c2.6,0,4.6-1.5,4.6-4.1V22.5h3.4v13.3
						c0,4.5-3.6,7-7.9,7S73.1,40.2,73.1,35.8z"/>
					<path id="Shape_9_" class="st0" d="M144.7,39.3v-2.2l0,0v-2.7c0-0.8-0.1-1.6-0.3-2.4c-0.2-0.7-0.6-1.3-1-1.9
						c-0.5-0.5-1.1-1-1.7-1.2c-0.8-0.3-1.6-0.5-2.5-0.4c-0.5,0-0.9,0-1.4,0.1c-0.5,0.1-0.9,0.2-1.4,0.4c-0.4,0.2-0.8,0.4-1.2,0.7
						c-0.3,0.3-0.6,0.7-0.8,1.1c0-0.5-0.1-1.1-0.4-1.5c-0.3-0.3-0.6-0.6-1-0.7c-0.5-0.1-0.9-0.2-1.4-0.1c-0.5,0-1.1,0.1-1.6,0.2v2.1
						c0.3,0,0.6,0,0.8,0c0.2,0,0.3,0.1,0.5,0.3c0.1,0.2,0.2,0.4,0.2,0.6v1v9.8h3.2v-7.8c0-0.5,0.1-1,0.3-1.5
						c0.2-0.4,0.4-0.8,0.8-1.2c0.3-0.3,0.7-0.6,1.1-0.8c0.4-0.2,0.9-0.3,1.4-0.3c0.9,0,1.7,0.3,2.4,0.9c0.7,0.7,1,1.6,0.9,2.5V39
						l0,0v0.3c0,3.4,2.1,3.7,4.9,3.2v-2C145,40.7,144.7,40.3,144.7,39.3z"/>
					<path id="Shape_10_" class="st0" d="M153,0c-5.3,0-10.2,2.8-12.8,7.2c-1,1.7-1.1,3.2-0.3,4.5c0.8,1.4,2.7,1.7,3.8,1.7h1.9
						l-0.7,2.1c-0.4,1.2-0.3,2.5,0.4,3.5c0.7,0.9,1.8,1.4,3,1.4c0.9,0,1.8-0.2,2.6-0.5c-0.2-0.3-0.4-0.7-0.5-1
						c-0.1-0.3-0.2-0.7-0.3-1.1c-0.5,0.2-1.1,0.3-1.7,0.3c-0.4,0-0.8-0.2-1.1-0.5c-0.3-0.4-0.3-0.9-0.1-1.4l0.9-2.8h2.9l0.8-2.3
						h-2.9l1.3-3.8h-2.6l-1.3,3.8h-2.7c-0.8,0-1.4-0.2-1.6-0.6c-0.3-0.4,0-1.5,0.7-2.6v0c3.3-4.8,9.6-6.6,15-4.4
						c5.4,2.2,8.5,7.9,7.3,13.6s-6.3,9.7-12.2,9.7s-11-4.2-12.1-9.9l-2.4,0.5c1.5,7.5,8.6,12.5,16.4,11.6c7.7-1,13.3-7.6,12.9-15.2
						C167.2,6,160.8,0,153,0L153,0z"/>
					<path id="Shape_11_" class="st0" d="M162.4,18.4c-0.6,0-1.3-0.1-1.8-0.4c-0.3-0.2-0.4-0.5-0.5-0.8l0,0c0-0.2,0-0.5,0.1-0.7
						L162,11h-2.5l-1.6,4.8l0,0c-0.4,1.2-1.6,2.1-2.9,2.2c-0.3,0-0.7-0.1-0.9-0.4c-0.2-0.3-0.3-0.7-0.1-1.1l1.8-5.5h-2.5l-1.6,4.8
						c-0.4,1.1-0.3,2.3,0.4,3.3c0.7,0.9,1.7,1.3,2.8,1.3c1.3,0,2.5-0.5,3.5-1.3c0.3,0.5,0.8,0.9,1.4,1c0.6,0.2,1.3,0.3,1.9,0.3
						c0.2,0,0.5,0,0.7-0.1l0.2-0.2c0.1-0.2,0.2-0.3,0.3-0.5c0.1-0.2,0.2-0.3,0.2-0.5c0.1-0.2,0.1-0.3,0.2-0.5l0.1-0.3
						C163,18.3,162.7,18.4,162.4,18.4L162.4,18.4z"/>
					<path id="Shape_12_" class="st0" d="M148,40.9c0-1,0.8-1.8,1.9-1.8c1,0,1.9,0.8,1.9,1.8c0,1-0.8,1.8-1.9,1.8
						C148.8,42.7,148,41.9,148,40.9z M151.4,40.9c0-0.8-0.7-1.5-1.6-1.5s-1.6,0.7-1.6,1.5c0,0.8,0.7,1.5,1.6,1.5
						S151.4,41.7,151.4,40.9L151.4,40.9z M150.7,41.7L150.7,41.7l-0.3,0l-0.5-0.6h-0.4v0.6h-0.3V40h0.8c0.2,0,0.3,0,0.5,0.2
						c0.1,0.1,0.2,0.3,0.2,0.4c0,0.3-0.2,0.5-0.4,0.5L150.7,41.7z M149.6,40.9h0.4c0.1,0,0.2,0,0.3-0.1s0.1-0.2,0.1-0.3
						c0-0.1,0-0.2-0.1-0.3c-0.1-0.1-0.2-0.1-0.3-0.1h-0.4L149.6,40.9z"/>
				</g>
			</g>
		</g>
	</g>
</g>
</svg>
